<?xml version="1.0" encoding="utf-8"?>
<!-- Generator: Adobe Illustrator 19.1.0, SVG Export Plug-In . SVG Version: 6.00 Build 0)  -->
<svg version="1.1" id="Layer_1" xmlns="http://www.w3.org/2000/svg" xmlns:xlink="http://www.w3.org/1999/xlink" x="0px" y="0px"
	 viewBox="-909 478 100 125" style="enable-background:new -909 478 100 125;" xml:space="preserve">
<g>
	<title>Artboard 83</title>
	<path d="M-891.5,554.4l2.4-2.4c0.3,17,14.3,30.4,31.2,30.1c16.5-0.3,29.8-13.6,30.1-30.1l2.4,2.4c1.2,1.2,3.1,1.2,4.3,0
		s1.2-3.1,0-4.3l-7.5-7.5c-1.2-1.1-3-1.1-4.2,0l-7.6,7.5c-1.1,1.2-1.1,3.1,0.1,4.2c1.2,1.1,2.9,1.1,4.1,0l2.4-2.4
		c-0.4,12.2-9.6,22.2-21.7,23.7v-45.7h8.7c1.7,0,3-1.3,3-3s-1.3-3-3-3h-8.7v-7.8c5.1-1.4,8-6.7,6.6-11.8c-1.4-5.1-6.7-8-11.8-6.6
		s-8,6.7-6.6,11.8c0.8,2.9,3,5.2,5.8,6.3v8.1h-7.9c-1.7,0-3,1.3-3,3s1.3,3,3,3h7.9v45.7c-12.1-1.5-21.3-11.6-21.7-23.7l2.4,2.4
		c1.2,1.2,3.1,1.2,4.3,0s1.2-3.1,0-4.3l-7.6-7.5c-1.2-1.1-3-1.1-4.2,0l-7.5,7.5c-1.1,1.2-1.1,3.1,0.1,4.2
		C-894.5,555.4-892.7,555.4-891.5,554.4L-891.5,554.4z M-861.5,506.9c0-2,1.6-3.5,3.5-3.5c2,0,3.5,1.6,3.5,3.5c0,2-1.6,3.5-3.5,3.5
		l0,0C-860,510.4-861.5,508.8-861.5,506.9L-861.5,506.9z"/>
</g>
</svg>
